# xmcd
#
# Track frame offsets: 
#        150
#        16842
#        35953
#        55979
#        71423
#        86777
#        104914
#        119574
#        136698
#        153798
#        176130
#
# Disc length: 2577 seconds
#
# Revision: 0
# Processed by: cddbd v1.5.2PL0 Copyright (c) Steve Scherf et al.
# Submitted via: ExactAudioCopyFreeDBPlugin 1.0
#
DISCID=9a0a0f0b
DTITLE=Sweet Vandals (The) - So Clear
DYEAR=2011
DGENRE=Soul
TTITLE0=Change
TTITLE1=Listen For A While
TTITLE2=Burning
TTITLE3=Move It On
TTITLE4=I Love You More Than Words Can Say
TTITLE5=Tiger
TTITLE6=Till I Found You
TTITLE7=You Reap What You Sow
TTITLE8=In Transit
TTITLE9=So Clear
TTITLE10=The Battle Of Life
EXTD=
EXTT0=
EXTT1=
EXTT2=
EXTT3=
EXTT4=
EXTT5=
EXTT6=
EXTT7=
EXTT8=
EXTT9=
EXTT10=
PLAYORDER=
